<svg width="116" height="30" viewBox="0 0 116 30" fill="none" xmlns="http://www.w3.org/2000/svg">
<path d="M0.4375 0V23.1713H4.40781V0H0.4375Z" fill="#213F7D"/>
<path d="M23.9489 16.442C24.5724 9.71271 21.1927 6.33149 15.7786 6.33149C10.5286 6.33149 7.18175 9.9116 7.18175 14.884C7.18175 20.1215 10.4958 23.6022 16.0739 23.6022C18.5349 23.6022 21.3239 22.7403 23.0302 20.9503L20.4708 18.3978C19.5521 19.3591 17.6161 19.9227 16.1396 19.9227C13.3177 19.9227 11.5786 18.4641 11.3161 16.442H23.9489ZM11.3817 13.0939C11.9724 10.9724 13.7443 9.9116 15.9099 9.9116C18.2068 9.9116 19.8474 10.9724 20.1099 13.0939H11.3817Z" fill="#213F7D"/>
<path d="M42.9476 23.1713V14.5856C42.9476 9.44751 39.8961 6.56354 36.0898 6.56354C34.0554 6.56354 32.4148 7.39227 30.7742 9.01658L30.5117 6.79558H26.9351V23.1713H30.9054V14.8177C30.9054 12.3315 32.5789 10.2431 35.0398 10.2431C37.5992 10.2431 38.9445 12.1326 38.9445 14.6188V23.1713H42.9476Z" fill="#213F7D"/>
<path d="M54.23 10.2099C56.7566 10.2099 58.9222 12.1326 58.9222 14.9834C58.9222 17.9337 56.7566 19.7901 54.23 19.7901C51.6706 19.7901 49.6363 17.8343 49.6363 14.9834C49.6363 12.0331 51.6706 10.2099 54.23 10.2099ZM59.1847 0V9.04972C58.2331 7.35912 55.5753 6.43094 53.8691 6.43094C49.1441 6.43094 45.6331 9.34807 45.6331 14.9834C45.6331 20.3536 49.2097 23.5359 53.9675 23.5359C55.9363 23.5359 57.9378 22.8729 59.1847 20.9171L59.4472 23.1713H63.1878V0H59.1847Z" fill="#213F7D"/>
<path d="M79.4682 8.51934C77.5979 6.86188 75.6948 6.36464 73.1682 6.36464C70.2151 6.36464 66.3432 7.69061 66.3432 11.4696C66.3432 15.1823 69.9854 16.3094 73.0369 16.5414C75.3338 16.674 76.2526 17.1381 76.2526 18.2652C76.2526 19.4586 74.8416 20.2541 73.3323 20.221C71.5276 20.1878 68.9026 19.2265 67.7541 17.9337L65.7854 20.8177C68.1479 23.3039 70.7073 23.7348 73.2666 23.7348C77.8932 23.7348 80.2229 21.2486 80.2229 18.3646C80.2229 14.0221 76.351 13.326 73.2994 13.1271C71.2323 12.9945 70.2807 12.3978 70.2807 11.337C70.2807 10.3094 71.3307 9.71271 73.2338 9.71271C74.776 9.71271 76.0885 10.0773 77.2369 11.1713L79.4682 8.51934Z" fill="#213F7D"/>
<path d="M90.5986 19.6575C87.8751 19.6575 86.0048 17.5691 86.0048 15.0166C86.0048 12.4641 87.7111 10.3757 90.5986 10.3757C93.4861 10.3757 95.1923 12.4641 95.1923 15.0166C95.1923 17.5691 93.322 19.6575 90.5986 19.6575ZM99.5564 30V6.82873H95.8157L95.5532 9.08287C94.3064 7.25967 92.1407 6.46409 90.3032 6.46409C85.3157 6.46409 82.0017 10.2099 82.0017 15.0166C82.0017 19.7901 84.9876 23.5691 90.172 23.5691C91.8782 23.5691 94.4048 23.0387 95.5532 21.2486V30H99.5564Z" fill="#213F7D"/>
<path d="M103.073 6.82873V23.1713H107.076V14.5525C107.076 11.5359 109.012 10.4088 111.112 10.4088C112.424 10.4088 113.179 10.7735 113.999 11.4696L115.804 7.9558C114.918 7.06077 113.31 6.39779 111.637 6.39779C109.996 6.39779 108.323 6.69613 107.076 8.71823L106.781 6.82873H103.073Z" fill="#213F7D"/>
</svg>
