<svg width="21" height="22" viewBox="0 0 21 22" fill="none" xmlns="http://www.w3.org/2000/svg">
<path fill-rule="evenodd" clip-rule="evenodd" d="M0 1.22118C0 0.760866 0.369365 0.387711 0.825 0.387711H3.3C3.75563 0.387711 4.125 0.760865 4.125 1.22118V16.2235C4.125 16.6838 4.49437 17.057 4.95 17.057H15.675C16.1306 17.057 16.5 16.6838 16.5 16.2235V13.7231C16.5 13.2628 16.1306 12.8897 15.675 12.8897H10.725C9.3581 12.8897 8.25 11.7702 8.25 10.3893V2.8881C8.25 1.50718 9.3581 0.387711 10.725 0.387711H18.15C19.5169 0.387711 20.625 1.50718 20.625 2.8881V18.7239C20.625 20.1049 19.5169 21.2243 18.15 21.2243H2.475C1.1081 21.2243 0 20.1049 0 18.7239V1.22118ZM16.5 5.3885C16.5 4.92819 16.1306 4.55503 15.675 4.55503H12.375V7.88889C12.375 8.3492 12.7444 8.72236 13.2 8.72236H16.5V5.3885Z" fill="url(#paint0_linear_19254_538)"/>
<defs>
<linearGradient id="paint0_linear_19254_538" x1="-1.55986e-06" y1="31.4343" x2="21.8776" y2="-4.51985" gradientUnits="userSpaceOnUse">
<stop stop-color="#213F7D"/>
<stop offset="1" stop-color="#39CDCC"/>
</linearGradient>
</defs>
</svg>
